<svg width="69" height="180" viewBox="0 0 69 180" fill="none" xmlns="http://www.w3.org/2000/svg">
<path d="M25.3078 146.822C25.8864 146.99 26.3344 147.289 26.6518 147.718C26.9691 148.147 27.1278 148.661 27.1278 149.258C27.1278 150.117 26.8104 150.789 26.1758 151.274C25.5504 151.75 24.6638 151.988 23.5158 151.988C22.3678 151.988 21.4764 151.75 20.8418 151.274C20.2164 150.789 19.9038 150.117 19.9038 149.258C19.9038 148.651 20.0624 148.133 20.3798 147.704C20.7064 147.275 21.1591 146.981 21.7378 146.822C21.2431 146.635 20.8511 146.341 20.5618 145.94C20.2818 145.539 20.1418 145.072 20.1418 144.54C20.1418 143.728 20.4404 143.089 21.0378 142.622C21.6351 142.146 22.4611 141.908 23.5158 141.908C24.5704 141.908 25.3964 142.146 25.9938 142.622C26.5911 143.089 26.8898 143.728 26.8898 144.54C26.8898 145.072 26.7451 145.543 26.4558 145.954C26.1758 146.355 25.7931 146.645 25.3078 146.822ZM23.5158 143.07C22.8624 143.07 22.3678 143.21 22.0318 143.49C21.6958 143.761 21.5278 144.153 21.5278 144.666C21.5278 145.198 21.6958 145.604 22.0318 145.884C22.3678 146.164 22.8624 146.304 23.5158 146.304C24.1691 146.304 24.6638 146.164 24.9998 145.884C25.3358 145.604 25.5038 145.198 25.5038 144.666C25.5038 144.153 25.3358 143.761 24.9998 143.49C24.6638 143.21 24.1691 143.07 23.5158 143.07ZM23.5158 150.826C24.9998 150.826 25.7418 150.271 25.7418 149.16C25.7418 148.04 24.9998 147.48 23.5158 147.48C22.0318 147.48 21.2898 148.04 21.2898 149.16C21.2898 150.271 22.0318 150.826 23.5158 150.826ZM33.7023 146.822C34.281 146.99 34.729 147.289 35.0463 147.718C35.3636 148.147 35.5223 148.661 35.5223 149.258C35.5223 150.117 35.205 150.789 34.5703 151.274C33.945 151.75 33.0583 151.988 31.9103 151.988C30.7623 151.988 29.871 151.75 29.2363 151.274C28.611 150.789 28.2983 150.117 28.2983 149.258C28.2983 148.651 28.457 148.133 28.7743 147.704C29.101 147.275 29.5536 146.981 30.1323 146.822C29.6376 146.635 29.2456 146.341 28.9563 145.94C28.6763 145.539 28.5363 145.072 28.5363 144.54C28.5363 143.728 28.835 143.089 29.4323 142.622C30.0296 142.146 30.8556 141.908 31.9103 141.908C32.965 141.908 33.791 142.146 34.3883 142.622C34.9856 143.089 35.2843 143.728 35.2843 144.54C35.2843 145.072 35.1396 145.543 34.8503 145.954C34.5703 146.355 34.1876 146.645 33.7023 146.822ZM31.9103 143.07C31.257 143.07 30.7623 143.21 30.4263 143.49C30.0903 143.761 29.9223 144.153 29.9223 144.666C29.9223 145.198 30.0903 145.604 30.4263 145.884C30.7623 146.164 31.257 146.304 31.9103 146.304C32.5636 146.304 33.0583 146.164 33.3943 145.884C33.7303 145.604 33.8983 145.198 33.8983 144.666C33.8983 144.153 33.7303 143.761 33.3943 143.49C33.0583 143.21 32.5636 143.07 31.9103 143.07ZM31.9103 150.826C33.3943 150.826 34.1363 150.271 34.1363 149.16C34.1363 148.04 33.3943 147.48 31.9103 147.48C30.4263 147.48 29.6843 148.04 29.6843 149.16C29.6843 150.271 30.4263 150.826 31.9103 150.826ZM40.5288 151.764C40.3982 152.007 40.2162 152.128 39.9828 152.128C39.8428 152.128 39.7168 152.077 39.6048 151.974C39.5022 151.871 39.4508 151.741 39.4508 151.582C39.4508 151.451 39.4882 151.325 39.5628 151.204L44.7988 142.146C44.9388 141.903 45.1255 141.782 45.3588 141.782C45.4988 141.782 45.6202 141.833 45.7228 141.936C45.8348 142.039 45.8908 142.169 45.8908 142.328C45.8908 142.459 45.8535 142.585 45.7788 142.706L40.5288 151.764ZM39.2268 147.928C38.4708 147.928 37.8782 147.671 37.4488 147.158C37.0195 146.645 36.8048 145.893 36.8048 144.904C36.8048 143.915 37.0195 143.168 37.4488 142.664C37.8782 142.151 38.4708 141.894 39.2268 141.894C39.9922 141.894 40.5895 142.151 41.0188 142.664C41.4482 143.168 41.6628 143.915 41.6628 144.904C41.6628 145.903 41.4482 146.659 41.0188 147.172C40.5895 147.676 39.9922 147.928 39.2268 147.928ZM39.2268 146.976C39.6375 146.976 39.9408 146.813 40.1368 146.486C40.3328 146.15 40.4308 145.623 40.4308 144.904C40.4308 144.195 40.3328 143.677 40.1368 143.35C39.9408 143.023 39.6375 142.86 39.2268 142.86C38.8162 142.86 38.5128 143.023 38.3168 143.35C38.1302 143.667 38.0368 144.185 38.0368 144.904C38.0368 145.623 38.1302 146.15 38.3168 146.486C38.5128 146.813 38.8162 146.976 39.2268 146.976ZM46.1008 151.988C45.3355 151.988 44.7382 151.736 44.3088 151.232C43.8795 150.719 43.6648 149.963 43.6648 148.964C43.6648 147.975 43.8795 147.228 44.3088 146.724C44.7382 146.211 45.3355 145.954 46.1008 145.954C46.8568 145.954 47.4495 146.211 47.8788 146.724C48.3175 147.228 48.5368 147.975 48.5368 148.964C48.5368 149.953 48.3222 150.705 47.8928 151.218C47.4635 151.731 46.8662 151.988 46.1008 151.988ZM46.1008 151.036C46.5115 151.036 46.8102 150.873 46.9968 150.546C47.1928 150.21 47.2908 149.683 47.2908 148.964C47.2908 148.255 47.1928 147.737 46.9968 147.41C46.8008 147.074 46.5022 146.906 46.1008 146.906C45.6902 146.906 45.3868 147.069 45.1908 147.396C44.9948 147.723 44.8968 148.245 44.8968 148.964C44.8968 149.683 44.9948 150.21 45.1908 150.546C45.3868 150.873 45.6902 151.036 46.1008 151.036Z" fill="#222222"/>
<path d="M68.5321 145.734C68.5321 164.659 53.1907 180 34.2661 180C15.3414 180 0 164.659 0 145.734C0 126.809 15.3414 111.468 34.2661 111.468C53.1907 111.468 68.5321 126.809 68.5321 145.734ZM8.48686 145.734C8.48686 159.971 20.0286 171.513 34.2661 171.513C48.5035 171.513 60.0453 159.971 60.0453 145.734C60.0453 131.496 48.5035 119.955 34.2661 119.955C20.0286 119.955 8.48686 131.496 8.48686 145.734Z" fill="#555555"/>
<rect x="18.165" y="22.2936" width="32.2018" height="93.3027" fill="#00F052"/>
<rect x="18.0137" y="1.5" width="32.5046" height="117.55" stroke="#555555" stroke-width="3"/>
</svg>
